<mxfile host="Electron" agent="Mozilla/5.0 (Windows NT 10.0; Win64; x64) AppleWebKit/537.36 (KHTML, like Gecko) draw.io/26.1.1 Chrome/132.0.6834.210 Electron/34.3.3 Safari/537.36" version="26.1.1">
  <diagram name="Page-1" id="5YDVeAiDMqFRkuZVFdcP">
    <mxGraphModel dx="1209" dy="854" grid="1" gridSize="10" guides="1" tooltips="1" connect="1" arrows="1" fold="1" page="1" pageScale="1" pageWidth="850" pageHeight="1100" math="0" shadow="0">
      <root>
        <mxCell id="0" />
        <mxCell id="1" parent="0" />
        <mxCell id="oga_OuISWfnWDX2VcwPs-4" value="&lt;b&gt;Home Network&lt;/b&gt;" style="rounded=0;whiteSpace=wrap;html=1;fillColor=none;strokeColor=#666666;verticalAlign=top;align=left;labelBackgroundColor=default;spacingTop=-14;spacingLeft=14;glass=0;shadow=0;" vertex="1" parent="1">
          <mxGeometry x="40" y="90.5" width="330" height="260" as="geometry" />
        </mxCell>
        <mxCell id="oga_OuISWfnWDX2VcwPs-19" value="" style="rounded=0;whiteSpace=wrap;html=1;" vertex="1" parent="1">
          <mxGeometry x="323.95" y="116" width="65.9" height="210" as="geometry" />
        </mxCell>
        <mxCell id="eP7QuQ9XPI-PK0VuXg0I-26" value="&lt;b&gt;&lt;font style=&quot;color: rgb(255, 255, 255);&quot;&gt;ANW&lt;/font&gt;&lt;/b&gt;&lt;div&gt;&lt;font style=&quot;font-size: 10px; color: rgb(255, 255, 255);&quot;&gt;[System Platform]&lt;/font&gt;&lt;/div&gt;" style="rounded=1;whiteSpace=wrap;html=1;fillColor=#1061B0;" parent="1" vertex="1">
          <mxGeometry x="89" y="130.5" width="140" height="80" as="geometry" />
        </mxCell>
        <mxCell id="m3zjqHu34r-lu_J2Bqki-4" value="&lt;font&gt;«&lt;/font&gt;external»&lt;br&gt;&lt;b&gt;UNAA&amp;nbsp;&lt;/b&gt;&lt;div&gt;&lt;b&gt;Website&lt;/b&gt;&lt;/div&gt;" style="html=1;dropTarget=0;whiteSpace=wrap;fillColor=#E6E6E6;" parent="1" vertex="1">
          <mxGeometry x="600" y="60" width="140" height="80" as="geometry" />
        </mxCell>
        <mxCell id="m3zjqHu34r-lu_J2Bqki-5" value="" style="shape=module;jettyWidth=8;jettyHeight=4;" parent="m3zjqHu34r-lu_J2Bqki-4" vertex="1">
          <mxGeometry x="1" width="20" height="20" relative="1" as="geometry">
            <mxPoint x="-27" y="7" as="offset" />
          </mxGeometry>
        </mxCell>
        <mxCell id="m3zjqHu34r-lu_J2Bqki-6" value="&lt;font&gt;«&lt;/font&gt;external»&lt;br&gt;&lt;b&gt;FINA&lt;/b&gt;&lt;div&gt;&lt;b&gt;Website&lt;/b&gt;&lt;/div&gt;" style="html=1;dropTarget=0;whiteSpace=wrap;fillColor=#E6E6E6;" parent="1" vertex="1">
          <mxGeometry x="600" y="181" width="140" height="80" as="geometry" />
        </mxCell>
        <mxCell id="m3zjqHu34r-lu_J2Bqki-7" value="" style="shape=module;jettyWidth=8;jettyHeight=4;" parent="m3zjqHu34r-lu_J2Bqki-6" vertex="1">
          <mxGeometry x="1" width="20" height="20" relative="1" as="geometry">
            <mxPoint x="-27" y="7" as="offset" />
          </mxGeometry>
        </mxCell>
        <mxCell id="m3zjqHu34r-lu_J2Bqki-8" value="&lt;font&gt;«&lt;/font&gt;external»&lt;br&gt;&lt;b&gt;CSNA&lt;/b&gt;&lt;div&gt;&lt;b&gt;Website&lt;/b&gt;&lt;/div&gt;" style="html=1;dropTarget=0;whiteSpace=wrap;fillColor=#E6E6E6;" parent="1" vertex="1">
          <mxGeometry x="600" y="301" width="140" height="80" as="geometry" />
        </mxCell>
        <mxCell id="m3zjqHu34r-lu_J2Bqki-9" value="" style="shape=module;jettyWidth=8;jettyHeight=4;" parent="m3zjqHu34r-lu_J2Bqki-8" vertex="1">
          <mxGeometry x="1" width="20" height="20" relative="1" as="geometry">
            <mxPoint x="-27" y="7" as="offset" />
          </mxGeometry>
        </mxCell>
        <mxCell id="w50QFx6NO46n3K7g5-WD-3" value="NetBeans" style="rounded=0;orthogonalLoop=1;jettySize=auto;html=1;entryX=0.5;entryY=1;entryDx=0;entryDy=0;" parent="1" source="w50QFx6NO46n3K7g5-WD-1" target="eP7QuQ9XPI-PK0VuXg0I-26" edge="1">
          <mxGeometry relative="1" as="geometry" />
        </mxCell>
        <mxCell id="oga_OuISWfnWDX2VcwPs-6" value="HTTPS&lt;div&gt;443&lt;/div&gt;" style="edgeStyle=orthogonalEdgeStyle;rounded=0;orthogonalLoop=1;jettySize=auto;html=1;" edge="1" parent="1" source="w50QFx6NO46n3K7g5-WD-1" target="oga_OuISWfnWDX2VcwPs-5">
          <mxGeometry x="0.0915" y="1" relative="1" as="geometry">
            <mxPoint as="offset" />
          </mxGeometry>
        </mxCell>
        <mxCell id="w50QFx6NO46n3K7g5-WD-1" value="" style="shape=umlActor;verticalLabelPosition=bottom;verticalAlign=top;html=1;outlineConnect=0;strokeWidth=1;perimeterSpacing=0;" parent="1" vertex="1">
          <mxGeometry x="144" y="281.5" width="30" height="60" as="geometry" />
        </mxCell>
        <mxCell id="oga_OuISWfnWDX2VcwPs-16" style="edgeStyle=orthogonalEdgeStyle;rounded=0;orthogonalLoop=1;jettySize=auto;html=1;entryX=0;entryY=0.5;entryDx=0;entryDy=0;" edge="1" parent="1" source="oga_OuISWfnWDX2VcwPs-1" target="m3zjqHu34r-lu_J2Bqki-4">
          <mxGeometry relative="1" as="geometry" />
        </mxCell>
        <mxCell id="oga_OuISWfnWDX2VcwPs-17" style="edgeStyle=orthogonalEdgeStyle;rounded=0;orthogonalLoop=1;jettySize=auto;html=1;entryX=0;entryY=0.5;entryDx=0;entryDy=0;" edge="1" parent="1" source="oga_OuISWfnWDX2VcwPs-1" target="m3zjqHu34r-lu_J2Bqki-6">
          <mxGeometry relative="1" as="geometry" />
        </mxCell>
        <mxCell id="oga_OuISWfnWDX2VcwPs-18" value="HTTPS&lt;div&gt;443&lt;/div&gt;" style="edgeStyle=orthogonalEdgeStyle;rounded=0;orthogonalLoop=1;jettySize=auto;html=1;entryX=0;entryY=0.5;entryDx=0;entryDy=0;" edge="1" parent="1" source="oga_OuISWfnWDX2VcwPs-1" target="m3zjqHu34r-lu_J2Bqki-8">
          <mxGeometry x="-0.4629" relative="1" as="geometry">
            <mxPoint as="offset" />
          </mxGeometry>
        </mxCell>
        <mxCell id="oga_OuISWfnWDX2VcwPs-1" value="Internet" style="ellipse;shape=cloud;whiteSpace=wrap;html=1;" vertex="1" parent="1">
          <mxGeometry x="446" y="130.5" width="90" height="50" as="geometry" />
        </mxCell>
        <mxCell id="oga_OuISWfnWDX2VcwPs-12" value="HTTPS&lt;div&gt;443&lt;/div&gt;" style="edgeStyle=orthogonalEdgeStyle;rounded=0;orthogonalLoop=1;jettySize=auto;html=1;entryX=0;entryY=0.78;entryDx=0;entryDy=0;entryPerimeter=0;exitX=0.484;exitY=0.01;exitDx=0;exitDy=0;exitPerimeter=0;" edge="1" parent="1" source="oga_OuISWfnWDX2VcwPs-5" target="oga_OuISWfnWDX2VcwPs-9">
          <mxGeometry relative="1" as="geometry" />
        </mxCell>
        <mxCell id="oga_OuISWfnWDX2VcwPs-5" value="" style="sketch=0;pointerEvents=1;shadow=0;dashed=0;html=1;strokeColor=none;fillColor=#434445;aspect=fixed;labelPosition=center;verticalLabelPosition=bottom;verticalAlign=top;align=center;outlineConnect=0;shape=mxgraph.vvd.web_browser;" vertex="1" parent="1">
          <mxGeometry x="251" y="293.75" width="50" height="35.5" as="geometry" />
        </mxCell>
        <mxCell id="oga_OuISWfnWDX2VcwPs-14" value="HTTPS&lt;div&gt;443&lt;/div&gt;" style="edgeStyle=orthogonalEdgeStyle;rounded=0;orthogonalLoop=1;jettySize=auto;html=1;" edge="1" parent="1" source="oga_OuISWfnWDX2VcwPs-8" target="oga_OuISWfnWDX2VcwPs-11">
          <mxGeometry relative="1" as="geometry" />
        </mxCell>
        <mxCell id="oga_OuISWfnWDX2VcwPs-8" value="&lt;font style=&quot;color: rgb(0, 0, 0);&quot;&gt;Modem&lt;/font&gt;" style="fontColor=#0066CC;verticalAlign=top;verticalLabelPosition=bottom;labelPosition=center;align=center;html=1;outlineConnect=0;fillColor=#CCCCCC;strokeColor=#6881B3;gradientColor=none;gradientDirection=north;strokeWidth=2;shape=mxgraph.networks.modem;" vertex="1" parent="1">
          <mxGeometry x="331.9" y="281.5" width="50" height="15" as="geometry" />
        </mxCell>
        <mxCell id="oga_OuISWfnWDX2VcwPs-9" value="Router" style="sketch=0;verticalLabelPosition=bottom;sketch=0;aspect=fixed;html=1;verticalAlign=top;strokeColor=none;fillColor=#000000;align=center;outlineConnect=0;pointerEvents=1;shape=mxgraph.citrix2.wifi_router;" vertex="1" parent="1">
          <mxGeometry x="331.9" y="143.5" width="50" height="50.1" as="geometry" />
        </mxCell>
        <mxCell id="oga_OuISWfnWDX2VcwPs-11" value="ISP" style="shape=image;verticalLabelPosition=bottom;labelBackgroundColor=default;verticalAlign=top;aspect=fixed;imageAspect=0;image=data:image/webp,UklGRrAtAABXRUJQVlA4TKMtAAAv/8F/EJUK47aNHEn9lz1hZy5+I2IC8KKMZywmbLHF3biCFuoZvUnl0MImqA1ApRlSyzMGE+vKktQai9xJQBvMdB3twYSZm0k+ZMPxvT/Pmm9t2+a2rW3r/n+Qkgulrnrpy72PMXpd92x5u5//OY1E0vcBH/mTGiUsI7Ij2XEYSNsm/jX/KwUAABAn0S9YsB41QGmQTls6DVpnF4Ljka4nfekGpZ/uzicsGhOkQwaM7ho9YtvpC5IkS5Ik2fIAqmc/mEXEzVTVxB7u8UfJjSRJkjT/f/cAEWbquvisdnBkAH6K6KEkNpIESUGKf2b2CPp2k+pp+P3Xwf7rONbo5/5+e60ll5q91vL//OPmUrPXWnKp2WstudTstZZcavZay//LlQkeAjyIvUUOtUck3iIE4QPwuzFwIIoOD3EkgESKe597/c1cc9D84U/0875hN+s9avONWrKIxAMrTFEGnyuxs0WLyIjgQ4tnvCGXdmZh3iixX35uI6cFOn1UEYsDxs9S+IfnPIcYeRH9zVDPKO886IKoZzlXYotoaU57v7sKAjCB/8xhlEUEBxdw7sp6Yw0zV2JLa2GVz4R/gni+MKriAIM+AdSzkyuxOi1MkQ8FudcD3ZV6D0B9IoVRgFyJ1WtpVrrqXXZXid19QAwK9RznSuxwtDBFPPrA7y6AxIIMFnIldnBa2KMaCqS7CH8xzCfy2c2V2IFqgc3Xz/DdLXg9zJ5FV/hHrsQOWgusJ5y/TOAs4Cqw/uZgFxl0hc1ursSOQEtz0jXsPHoV+g7Qd9iRJm690VyJHY0WtklD4bzvOwSMPuXNaa7EjksLPVDgPNv7DiERyEKuxI5QC3TikT7hXGLrSBEPYzt2bpMBQBMm5zaAMOTTh9rS+YOfZE289swuU3+Z5Dfx7qCv20AALWyIpB56cSnStXP/Xx55RgOcFwyXbiVYIY+HCOW8AW5UJu5dXXNYuiVqpicuP4U/kwGOI0tbIQzihTKgWd5+jGvXcz7ArNwRsYU/mDMYYNixsNXBPplcWsIbvPzDUuU4hA084TxzgQMbZrc6Hj6AXcovcKwZqxyGsoLT/RkLUJ4ztdXBEvbAlvQLGDLTleMaFrCF41ztO8SQka0ONnEFubRfEPiwVzkLgYb5Wdp3iDQNWyEUwVvht+PviisnoVuv5RmVs7PvECLxnM5Pf3Oa7zFklhtVfnfuNRuVk9APXepXSCeSIbH5Ig6c2Jqf6mZy4jcJSZcEqaDr/H7RWeqzJQYT2iKlCB0noOdj70FLnVH+zIVjivcM3zx8z6xhJtPPPg9qY4BDdmtHIheJZ3WJLRGjaJyJfDduUmHPhXFcprgeHy5davaT6WcE6eoYoMl60i8u62duUMjB/B0RAKngzkF2yCzNPuSDMeBf9H3Z2WYpmX7KQNXHACF6k41nmP/a4Ix10zt/HMIipmcfXyTS1W7z4IgM5K/p+5uhuq/J9PMW8CHEAE5qc+XOIeev6bvsWpfXMGYPQymD76zjzcMnDs3uvLSyhh/cNzR3yTkaAPcDiQFQ8nM7O2YhXtc3IeLGxNwxEVs8f3Owk8Zd2+aXCXUf38+CBZzgvKl5xyqnrznl4cHEADCJufEF9TfLCRCmfJ87C+kavkrwXOs73EduNmbBNBRgt2h+Tr45SOlrmNw+pBh0Yblymvjdpg8t3gPMm4U0K/uMz7K+w58idtnv58AYT4Hepvn1ME1/Sl/D4t5hhXcqLre0dEHvVn0oUwJr1iwEgHcgzq++wwsaDW0OzGMF5HbN3bscPD6w8L55+NuUt2ZxQrhdHRIUN+xZsxCGkD9V3FUt/dMQk6A5J4yzhQeIQPO+WwApfbw8uPB+FYTyVAwoiPQ962L3adaWkiMcAJ1TfBV/93nGO5hDwsCHy1LMp/T9cYDhBUZTqpywCPXtGdA1a5b0AfT5xIUrzVwe2GQiEGsmI6WPUkCHGF4IjGfKiTV4Qn1P3GZiziSUUc6dS0xeNcd56OJCQjNGABl9fANxmOH9CD1TTlQm9AHnNYw53c6Yn0VchOzy3qdhjReAE5p30Mxl9LEI76GGHAOYmXLCLKMPUepnrEF86ML/5ZHnD41YM5CmYRIPPqWZmAyccvVwQ45LppyYBZXShykzOa5p6T5/E+ncoXW1WU/TdDcKOc0owczsnHA54JADoiZTTkTkNMNJOMz8GkQz1UifN32HkBtGNl3N0ZTvV0FymgHzPQO1gA455OCZSZQTTBSSmi9cbaj5sRN0tM+YvkNA+DdAlu7L82SymqFk0socuMMO+UWaDTMRF9qyh5X+LHyX+pReg+CYx2dL3yEw8t4nafYnTv/x8Kxm8KxnJqboHHrIJ/6ZuOzcT2vGkMX0GgQAr08Js5IliLRn6TpfJpnXTGwmrbw9+JD/yyObH4m4NJP/bei0ZgiU5NcgyIHjHOk9QAhqkoY5CfiXR+Y1c46TRFoZBXn4IW+kOUpsTSauMzTz6lN6DYJmsOcHSDGXpJm5oDlHM/UJYHP5GEKOZ2Jnwga4GZp/YyG9BkE3xHMDZFlK0lV/G+8czahnNuokHUXIAfM14ZeIOZrh5nN6CYrRq4TPC7gEPUdzuPNynmY6M+cWgjuOkCOb2JlwhMAczUCIBMguQTXUK6LnBOiyn0tNM/2sC/M0czMzpOPOsYScqMRYgoR5mrnbHGUn02+fkzoJ3DXkY/Jb8ty9byLN0wyIvgR8PJqQg2YxHktwhOA8zRd0Gnp2CYpFZM6FvkPMOM3RvZ171w/uJYCJ3PGEnPuJsQSJMzU/T6mZyy5BsYbCedB3iGHur3+bWM/VDCRzaYgPxxRyWuOhJMecmam546c3uwTFGjLnQN8hejByf90Vzfi311/YJIAO9zGFHAVYcaw+zNUMlqbsEhTziAyfi5ePBgfZ1caG0WVeUp6lGQTziRTicVwhT/RGwIBnpmbOkZFegYSGwKmHS+zOadamGRPAec24JlLIEsjjCvlVYs1RHCsC5mgGxHU+AITcuv4Az2kHJbZmcO1uP3hBSGqGg4VECvn72EI+FRPHqtn60xHSmnfQUBiJDz8FmhmAeMpBio0Z3GzVIx6JlGaeJ/RBg+PYQv51fNDjWE2ckvpeJEkM21uCSDLf/3S40w080HKEWmBThz6gUPMTwwl9PDu+kOMdx6qh/dMQGX0X6Xc1sLb5bO+7///lkacaOPk5g0gKI5++jyfQzM2EPmaO8EAumM9xrLgT6ns17M7L3mAupiktXeKJBgi1ObJamsMu58K126f9CX28OsaQ8zqOFW3B63kyU7HN+vvFeP8e59Pcd0hCjjla+I0XxBsv1BL6WAV5jCEHx3Ycq9tWEYFB7jU3wLIxhY3FKe47xDPHTC0ckIs2oF9fFCf0YX+cISc4jgspN15IEsna8jHlkAunt+8QcsNenmsTUf5FmL8QghnrYwDIcYYcLvbDuLD3azMRaKzoBNjeF8SUVURGzcDkN4rNwbLcqgM2zTQktGB8rCEnPo4LDoDQJIf9ugvigzqtvQcTQkPLpIHtLqnZrypFRp6ONeSIw4qvMgbtRqxq4kfRSeWrIL2PmTRwsmf48E2kSUhDL2HD9XhDTnVRiTGNI/VJfTif0s6jLjKTGoCJ1bVF2s8sVdwBFNLxhhyNEuj/5Yo5IGnP6YOJ1ulk53ZqUjblf0MfcCjML83Gh2NOQ9e9PHzF5JpgsPTk9LF6lcip5FlKqfFFl3GbPmBYM7osG607d76N71hD/nV8+8hd+8JwQs4tnVEdbzOe09d9/29DD5iLkPpT+NQpmb0PQZMZIIz4CLDs8K1h9/q7t9wCc2whB4sxsU1/w36/LGwQent38ksSzUJOX5dyGvsOu+xMaprx7+KJ9SFHenO09D4dJj+IwgLSsYQc/o9E83Nb/H+NIaxBhr2IzXZOH2ansO9w514mNc3eM8opfV8nMPFtFpYf0W8sU48X6sAPO+RAkYNCfsVDbTRsmjABlPCBNicpzWy8O319h1eJZ5qwP++zzGp+FZpHdFRMQjcYdHUZu+wvaPzpCIcYctBcwY40uq5dU2hxmt0uvhFPesM2p5lPT6Pltkv9l0d2XzKpmQTM0Yw0cWxeo+CdDpUyfLiNHLBDCe/rYZ5R2bk35f+R8V9vflASg17/LrsfR8h7Iy6nGdcTx8MkMJOarubNw+dpBnHzP14yx4cFjUZioaCLBPC68N4j+bS97b1vaA3rmt8aGkaXd5n6LG9AqEtp5hil08YFrczNYZrJH+KerxlpYllZnuinWe66usqpuIkrZDSRgXupUMKDLJqQcXpLBT9Z5s9W7JffE7dv452bD9AMpTQzCvKU8WfhG1oiXc3xpUuLaAaCUVfQ7OVYXgtMlhmkmQpySSICLxwm1jsPPuyZ7F1H/x3nUXt8ePfuHTcgf+Q5Dnh3UV1Kl99V9VoZZBnmTW/FcEgB2kvcbwBJdlKaSTxhPHTvMumauCym+dWwexZdBSc5RqWFHpyX6ibGJLW+AhuN08Vl6g0rka6u9s3Dl7QJF3YMDRLmCEZiwXwQmfLB2CX4qeL1MM1IIl3NzLfxLmyTtCHCKHqAF83HVdBee8pHF3qq+g67kES6GuZl6gvbBMTCEP+amaVT+FVnmqWMj+b0WWqnqe/wkiqniXRNwpa2ifIg/xsoLp3CC7oNO+Oj+/VPQ5yivsO/eyS/EuHtDf7VUEvbxHeMbPgvnkJiUj5wHSfTKBXnRHibk0tqi9vk6xjZ6F48hcAZyPjgANHT03vQ8WTOv5t6vbhNuGCFqWaYZCZGQDPepYbDaYDlryiGHEcZb1SdntYTMhIpbPpexLG4TR7G6cd9XSFBJo3FY4aNrmKX3csk/2dc8An17Xq1fApxSnnD4NSAauKwTXPSyC5vk8I4/ddPSQaMCp69D83OMcIOjXg0ytdXFpEP9XWNy6cQEJ8z3hgEclp4oiORQkKWt/mOzTg1t+p74dzEijRGjwmWKccZNcC3xYXpSF9z/MOIy6cQYfYz3rA7LX2HPEykEBrI5W1yJU4NQaE+BLlHPN84OHzu+bpy948wLiSF+rAoSCGuGb9sQBgjt0kqKBYSKcSwwCZ+cWpQTekDgiyPiaOD3UPlD9o/8Xh9l4oL10PNZBfE9B3dGb+8OyV9hwQm0kpJhU2awtQwCyiv+fVAz5PduT9505U2/TAOiYbR6+9KJ//u3G0kn/JxAc5+pJn5kgvwcJrw+zsyp6PvEB7247SyDanAJjAOw5Lg3WzNgBHjJh5k0MQkJ7V8elwf8ODmiyR/fsTsuFATakaiIoVdRCYG1I6377CzYIVThU3U4zJBeynNgBFEncf4k9E19nqaheZ4SThmgW4aHvDjMdcQXOwQEtahD15WpPDVsJn7LDfApasj5LbI4gxHcaqhwlFh82NYJtCBLh+iCR5pNCBjixehJJBDJU33jDF13yw39D/++OVAOCzoT08s398zRjdNnx9I6MInvrte7dzf02mkwS+fBkjhQ/BRXJLCfXcyb4Hu44lgJS3xTse4xGavJdxKUD2WNDAUbcVYrvHBx8wWcE/3NIAoJzG0lNj8q6Gaw3AngcNY0kBCuBPjXIkPZDlN7ADpPAmsFMbARrXE5gWdeIyA7FjSgGW4U8SuxgeJmTERuqcA5D7GwzzSa2xOAkJYHcxTwH8dX3gOIuU1PiCwkdhB8+0EsFIcAwP+GptdSzgso2g0aegNRG8L1gHV+MA5MyPixvhBBGYcSqJrbP78iPgBdCYvR5OGLj58WzTyNT6AMZ2YENM+/r5D4hMPfwlPjc1LyvGk7GWSo0nDjmUYl4lDkQ9sYraNC6PvO4SYOKJGaJFNrEMa2nDSMMHDiuLS5Rb5AAI1ZqN09H2H+MewA7HIJv+Fc/IuazxpoDeKS2+0ygcPE6uhMBEdHFOVBYLVeEPKmyqb9Idz8h2b8aSBuCguDeuHEYt8AGY4sRhO/Nh7D6DEsAOuyCacMMM5+bOUxpMG7oVrBmhX+dghJ46FsD8hjBzAjMf7USKrbKIe0uz+MPB40oBYuGaAZ5WPnx/RUEO2bcpv5J1HGMVwXHabJdzDdzUtI0oDG9GaAeVlPnbZJg4/Nct/M9TAG8+ojodRZJbZ/BC+qwkbURp4H02wmS3z8Sp05jEb990dN5A4DQFAtsxm/LTRmI8oDQSEMyz4ynzglTj62Ps4NG5NFn7xJIq6MptwxQuyCIwoDdwKh9gYl/kAx258+Ak2IqPuOwSceEoXNMtsoh3CwpDSAG84xiKwzgdRiaOPBI2675AbiQvE19nEMWKjckxpYCbaylJd5wMhWPFWlkUgg+477GrjOTSv6mySFu7TP40pDZRHbzMmCn3QGLJtmAyMW5F1lXDDDGEPTJ1Nvof7dG6OKQ0Tn+htBgtknY9PMRt1Q+Zx4hmvoJFSZxMQe+E+HaExpWHPOIwzqnU+3jEXssGCf8Q89HriFbRGoc4movHNaJ/GlIarxMI487jQB6/DOG8bTiPmBekGCOFLoU1MwzTwbVTvwvBK4oTP8FGwXrPxbcA8TF7HC6gTm5k2ez+/IH1U70K+Rq+uodIHNfGMDQCh8fLQDIc0R9/HU2iT0jANOB3Bu3CNbkQzXelj517i6CPu4+VZSvHhk66s0mYzEqYBvUGx4hAtGDfATxELfbwattmJx2x0j7fvkOD48MmeWeVD6DYn4bsQvkGxohMuGF+4Wumjy30fv21fJDPcvkMmQpq1vxmq0ObLpELYGBUrPOGCMc8rfewZJc5BnPiNtu8Q2fjoWZdUaXPvRrgRpm1UrCur0YIxIZU+fhg48cyCvf5RMa9l4REfPL1wrdLmxCHcCJM+LFaaowVjikt9EBPnrQE6wcH2HtAaP6P364GWtll7r/Ap32Gx8l/Axo9SH1yNDz5vvBgrYONHQiSh1CZ14T5458GwWPEMnyqq1AdgVkI2KsbaeYRl/K5Bt9Qmv8N98KVLw2LldsC2gS71QVbIxi4cQ208IyO+ztBTpU3AHIX74O/iGRYryhEbCqU+MA/ZNjRHCiAWw3cNeaU2EQ5ptsbFCiZ+KO1SH3ByGLIRPiZuUhbKiQe0L7WJfjgEa36Ni3VlPVogx7XWB/UhGwMj7TvEM4QTUKU2sY0fKn9grM3Pg7qDGLYhGwACA+075P9wn0lbrU3CwzEMoQPjsSuJVkhpqPWBRMi28WicfYeA2Az3mfjX2iQv3IlhMzAewo++9rnYB/PxwWdShsTNyUI2HjJxudYmLeFODP2B8bBjHa2QslvsoyuIDz4zNExWKCHsAK21CTXciSE7MB729MMV0p/C1/rYsQ7ZYE/wo2QlLxwyUVNsk4NwKwZuYDw2UuEK6Ytka31cJR6ybTumo2RlKhwyYV9rE0IIhyNjBR2ukF7QK/bRTMUHn6ciRgkC8YgZ+VqbyIU7MWgjY13DcwZ3Hhf7ICvuPeg6BskKOYRdwDNtts8uoHNorIxFayQTz2If/B33HjSMvxpqjKyEhRMmPhfb5EW4FaN0aKw0R2skRBf74Hzce/C+uTjIvsPeh3DCRGCxTd6EWzHihsZKfrRGQlGxD2Acx0dvoQyy77BZDCdMXC+2SXq4FcNzaKxERGsktFb7oDvuPSBxjH2H30QKAYBYbLOrC7diPB4aK07RGgnUah8kx4fv6BgQ80bWRQbxYxRU2+y+hWWM7tBYuRNNktmt9oFVyAZ9HWLvwcTt0K4Q3qOGZYz80Fi5Fk6SgRX7QDFk2zg7xNaTLu/QrpvXbIZl3PEPjZVz4SQZvmIfIGCFbNwaYucRveFyyZ55sc2fHxE/q8hfDDM0VnjCSTIy1T6ghWz4jJDXA8EIl0teJlls85t441tAjo0VKEA0S+JatQ/qQzZKRth3iEBIs/vm4cU2G4lwK9Ysjo11bbajWRLG1T6IDtnoH0+c7wtZXAtXy7of1Ta5HJZxb2hwPDZT0SyJp9U+sI5bT9gZYd8hj8LF0i6j2iY3wzLuOkdA67AdnMs/5lrcerJBENg7xD9cLMW92iZPwjLuagfHQ/c5KhMCq318Eylma1QF9g7JDhdLsay2iWtYxmQOjoeuJCoTEsp9JD5M/w5ZTs73hQRaw8VSVKotERSWMdGD45Gk6NUVl/toqHHryeQffazMhIul4KstEReWMT6DYyUoKpPuQ7kPmuPWky5FH3DAjIBebpO0sIxxGBwrblGZdF/LfZAbt550jfIYzkRlstFTbpOC0AcvBseKbVQmvb5yH4TErSfNqDwGlahMNirKbVId+uDe4Fh5HJVJQy33wd+JbzNDHoN+VCYbb8tt8jH0gcngWLGIyoSFch8Yh2ywgY6O4UFUJhs+5Tb5EvpAd3CsGEVlwla5Dy6HbBu8w+s7xDEqkw2bcpv0hT5+Gxwr6lGZcFzuA+mYDZnh9R0SEB4qwbTcJuOhDxQHx3oflgkQtA/4YjY0htd3SFJ4qIQr5TZZCH0gPjhWpMIyAYP2ASxmw2I0cZ5nWV1ZeKjkU7nNhh76gH9wrAiGZQIJ7gPGLT5u248Prvega4nKZANbbrM5Dn2AGxwr+LBMEIP7YCn0seE9On5dV1QmGz2/N7293k+fPvx++0+vlpANjsGxPoVlgiLcB6Ohj43o4XUe9QZyD3t3VmoheXiNZ81ornTOSi1kDK/vEFqudM5KLeSPhvssi/lc6ZyVWigbXt8ha7nSOSu1UDO8vkO2c6VzVmrpfRhe3yGMXOmclVq61tFwnyXAypXOWaml+zoy/vwrVzpnpZbu1+iY33Olc1ZqaX6MjmEnVzpnpRZaRsewliuds1ILjaNjWMiVzlmphcrRMdBypXNWaqFgeH2H/M6VzlmphYzh9R3Snyuds1ILCcPrO4w/Szgj5TYbxdBHrm1Fi5a4dOA+6I19EDUapv56yCyV23zuXOgDeC7kSrQADcuEXbgPuOItEX6jifM8y+rKw40mh+U2v0wo9AFhcKygwjJhcrmjLDesR8evS4n3meUfour7eEIfnBkc64ewTPgB94FxPA55Ozp+k5B4yPRlgtU2/2ao0EcjNThW+MIyoQ7ug7/jYSgXRsdv4hqPmJ+TL7fJafS67MLgWHtnwzIhG+6D4HgWgtDw+g55GE+YLlMvt8l25OOC9uBYn5MKy4RouI8uN56EghhNnO+zLAzj+fKeablNliIfe7cGx+Ozzodlgh/cR9cU+ni3Dq/vELV4uWRiV26TycjHPvLgeLigFw6TcYT76I2FPqCOvN4hwvFqGUHlNhmIfOx6Njge9lmGw2SewX00u6EPWq+83iEw2PGHsCm3yffIB5TB8TCxCofdO3fAPn6ZdYc+umw5Od+EBOYjNj6XW+JT5AO3wfGIYzjs3ruO9vEsxXgWN/lXHyudERtj5TYpiXwQPDhW/MNh92XX0D4wiGdxO0/1sZIff1CrcpskRz7WwbGSEA67n6eA9oFtPIu7TF0fK4ER2wax2iYhkQ9KBsdKaTjsvkoY7YOoeBb3RWf1sWIVsnG52ibukQ8+DY6V9nDWtYNG+6A6pDl8PZA+VrRDNp5X28QqPI4/OFaoEbAAoX0wFH+NtgNkRThkI6LaJmbht3YxOFa2w+ctqvbxdB9O4qkd4X2HgcSfoI3/q22iEZUxO4MDOEA0S2Ku2gcCIRtRQ7zvcDMcHiphvNpmIx+V8Qc4hsaKcDjppq/aBwYhGzZDvO9wVxweKoF5X2zzKuGwjOEdGisXw0k3n6t94BayoTkeJiNr4vs+XCxt5Ipt/sVwYRkjPTRWjMNJNyXVPsgK2SBdR1z3YM8kXiufWFXbbA4iH2gMjRWbcNJNYrUPukPYHSIPV4nEa+VdcrXNZjKywb2hseIff8qaYh9AOAzL+H6IPK5shoul3c9qm3REr4nH0FhxD88b4H6xDwTi8xD+EPniebTGXxrnfx9nsU1KozKeismRupa0LN7FrSeNSrFN4qIy7kpy6U9eS0oWzw/tcUnwjMq4az/h6df53oFIxatlZBbb5FFUxs34KU+/zvcOZCVcLmGy2Ca6URlzcMrTr/O9A6mOl0sQOqx774DNpT94LTlZuIdsPKm1CS7ciiFz92HlcshG9mE9eB56dx9WYDAiNmaKbTIelTE2dx/WlY6w9WRDpNYmH6OtGGF3IFZCQzZsam2SEm3FKLsDse4ZhmzU1trEM9qK0XMH4vFvhoo/NweMPc5Sm9yOtmJsn+j0q713SPd/3HuwY15q87IL4VYM4olOv9h7h0zs4t6DLrPU5g9xhzsxzp/o9Iu9d0jvTHy+XLP68yMO6dHTuHfcIX83xtKrluf1eL1cjBzU5w55aLoj6/ge9zvOPqete0BULJ/I0vRTEr26nOPe4Nrna7t6AjqxfOYBV6af0Mh69+2oGft8bTePgIOtWD5alenHKrLebB81Y5+v7+K5ZCa+bYTK9HMpDMdLosfM2Ofru3cwBrF86MAL0w8aIAoH14+Zsc/3vB6FzjxrsXzMK9PPXBQO3I+Zsc9pvHcwqbF8KtfD+SSu5BwzY5/TeO9gtGP5nMBXmH6ionDQfcyMfU7jvYMBsxTLx6cw/TyLwsEh4CNm7HOe16OyXF1SLJ+5d3Xp53wYDsSPmLHPaeTxMvWEfG7VpR9O2FE4MDtixj6nkYeH3nAsv2soTD+0KBy8PmLGPuc9PUdQNOzCR1CmLrybxxEz9jmdPE4IMGL5U9F16e9Co3CwesSMfU4n60pBLL/ZneDK0r/PMgwHwsfLxKmh+R1QSM6trGgmqhfPsnB82dnw3cCdI05N/M6kQVjORfmMxhsvFoGVhaOZ34IXkUecmnjDTIOwnIvycd+2g3lsVCqjV6/9iFMT75dpEJZzUT5cHMZDF0YBHci3cdHs/csjx9F3yIOunKvySdkO5ugjOuEQ9hmVcfQd8qAr56p8xGDFExeGABeFAwzsaAg7sRlH3yEPsnKuy6cqMZfl/oxw9G5hSR9H3yEPqnJukM/FxFIGE0CLwkFuNIRlfBx9hzyIyrlFfvM9sZL1W1E4eBXOYBAcRt8hEZJy7pG/725iIZPZV6EP4zP48GgYfYdEyMq5Lv/nRzQTiXXsiUtNOACxEc1gyBxG3yERsnJukD+hJA5jNJvfxlcTDirCj584jL5DImTl3PE/dgY1cRSrS6oJB/bhDAahUfQdMqEq5w75PEkcxISFQkk4kA1nMDwZRd8hE6py7pAPhN+JY9i0lITj9UDNSjSDIWsUfYdMiMq5Rz7kmG3DtCQcXVk0g2G6NrwgIHSk56Sep3Dp8scLlxo11B4fkX37Ft4PoOv6DnWDyxnBCpiBmI3JPyrCscsunMAitfDvC+oq4UYJIx7jShgZlNNEN+OswMh12LDN4rumt2vtqrr/ulCcecwNFOBesu/QBbCc2+RjGrNthFSE40Wy4QQWt2U0g0AOs89dXFfefWsWGubSDVYcMcUXSoiAgv7bq6AL9B3aoSFnCCsguhKp5rTk8wOwEL16bXM1I8INPEmnlXmAXIktqaVhNlP13qEfWnPulM+1TPrpAlIQDnLCb+f4u3jS+sCjgxtZdLGXK7ESLcH1DgMllGTSiktBOLAMS2LnUUbft/HuGU/5UcHUgXXcBtc7DF69M81BIq0cNmLLhwNU+P38dkXhbyxvYtUl9nob9gE2XGfWO0xpmQRl0tprevPw5cNBY1QSbAK55WnfuMg/vL/2C+w5QLZ8eod9/+LozVwmrRPX5cOBbVgmqF8b1KKKJ42/fi9Rh8qmr3eI3yfhc+6LaNejTFqb40sqi4ccAYCoTIhY4b7+tSMfMpu+3iF+n4TPuS+i1wPxJZNWBoBX34eXZX7B3rZDZ9PXO8Tvk+A5d0aEEqeZtBK9eMjxj0vsCNj09Q7x+yR0zr0REZpJ60d0lw45ikfIpqd3uN6+oT9nICsIqJm0sgTf4t/t2/Gx6ekdrrdvwObcHhEaAJm00gp00ZADRp/R42PT0ztcb9+Az7knttu/l6HKp5JBCC+mtyNkq/85z8d6+wZ8zr2xgfstk+oPmC+kGRwUvh1WOX2E/sTUPUM37+lP//09q08wr2tefp7Ox3r7BnzOwHcIuuVBcpBYQDMg9CiGsdXTnDQz3beulnRCcOYRRlxGBkHQubiAhA8J1NDl7sR5EtyldBVNJzSOF5yn81HfN/B9LtEdG4WpkmDwxxHmaoYLN8ZrdxwcQ6WBeJywuHD1y4TePHzhtH5GFVMciaeRcU4WmKfzUd838H0u0R3bd+NuZlJl0tXPO4mcq+RztJXBJh38hyN6CAOuTSsQROfv5/mo7xvoPpfoj+2CdsNKlcnU27xmsNgxWDW+YJZKvNGH90j283zU9w1sn0sgYutCcmXyIakZcSLY3ipolruGSfCOecd3TPt5Pur7hvU/l4DzeBWUH6nS4RSDzHGKz9TD3haHY9oI3rH8IpGj28/zUd83cH0uAYoNMfZSpcM2spG+Px3u11/W3cLA5Duh6IE8yv08H/V9A9XnErDYeJorHRYQvlXfFdEuii3+LMtHeonhFpij3c8TIyJn8AiJwBLj8N7U94xqV9CcbstCGxYQj3o/T4qUnCGWQPArV04MQrim74J219AAi68t0HPk+3lKxOSMsYQQG7ly4juo9YeBd8y7rpKlJdSPez/PiZacQZYwgpUrJ+pxbKaLVhapOuzUzJ+nc6IlZ5QlfHPrCItpgcZiqAUWYuf+dQcxf4m8qyoDBuXoP0xcYn28O+evOwh8l4CGWgJsWnkK6lfNzX6oj70J8Xy/7iDS0otkmo3lYYVQRG9o7tJifV3w2X7dQayl5gKHywJAE2Q4bnsa9w+hvmbnu3jO9OsOoi19hL0grBGBeKCZjljf5M0Zf91BqCX+WQz6eAY81MzdWF+zuYM+3NTUv8fnRUfOWJv8twiwqEQzoxkI07E+vA43NfXv8XnRkTPW5jvq5sMu8YgkNeMQh4NtiAebmvr3+MTIyBlsEww/Z8IYdqDSmt+yGW+xiDzY1AjrHcrIGW0THL0zaIBeMyaA5mgmKN5iccTZQ02Nst6hiJzxNuFlLE2X9YzcTM3vEo3oZCVSY693qCHnFWxeJdJMZf9tr3kXdq5mkuIdFizkbk2Nyd6hgpzXsHmVeDOb/V9jmLMzNSMAI95h0XI9NU57hwJyXsXm82RYya43sITSTM0kJXZY3F1Pbt8hfc7r2ESB1exqI3Q05ml+SbQ5jndYLOyg7wB9hygtnPs9uwLJEXfnae6SE+OVLurO0HcI0IIoUzm2DYAooHM0f5FIc5Q4tfR5ineFvkOEFkgM3yC2ScfTHM1EJsYrXdc/DXGn6Tusfo5Af5JtY/EizRmawbORGK/gcUd47kCMlk98T1tvmBPfGZpxToSIY2TvBs8dCNICmvd5613ZhJjWDIzJRIj4Cvgu8NyBMC1/98guPW+dRYwSmm/7mg+P7ldSYJ+vA6SWiU8DpK0DkAIqe0Ea2hMh4pQrh96HZ59vaR4esYSRt840mknNyHKaCBHzcB14H559vrVZV66ykbcOi0g4c5qJyISI6qfD7sPzC6Z3CNWCBNQZ1pnFPKUZFHOZEOF82H14fsH0DrFawFA5xzrNz8hlNGOR0QeLGwfdh+cXTO8QrOUJX1gzrDeMScDrYRKau5qMvob+nNwh9+H5BdM7hGvBkM051psJbj+Fmr9KsFnP6Guoh/zVlPsF0zvEa0GE3lnW6UI31LxDTunrNT0DO9w+PPscCtb1z8J2+fOs8xHVSDOFKX2UATnYPjz7HA4eHx52rJrdWeEAoATJ2zVDYDGlj4yD/QUu2+ew8PDYCNM5LxywqefCrZrRgpnSR/yh9uHZ59CwrkAJgDkzHHzY07tNMz45fQQfaB+efQ4L159ZiMm54ej17by42WYCiNqcPpKTl5w+I7Uw2ARL/ux3AxO43TjdcGM2p4+85CMunZtaVreJCQuzN4YckcOl60+my2FOHzUXIXOlc2ZqWd4mWJI/zt8X0ovNr7cRwTypr+m7SjxXOuelFgKbF2n3qAsMjzigkBtA14lHsjybtQu61TEAHg/DYPPVsJOwRa5DzFqXeNm1LjlZnh+xr40BYvyKh+Gw2SjSuczkqKGlny2EekiFMcCS7W0LWFdA3GOudL7MBrer/O7CkgrAn20HuH5TOP7lsHS5hEL4S/xifm05O3VyX2grRR8qV8vYxwfE4n6fk7rx4Tnz51YdXOVn6QIq05B/GHhRv1dEu/Sbd8mPh0tmE5NmoHT9vBnbRXk9zGJ+XyTTJd52Sms8/Nhsvnn4zv3e79LDJ83ylG/Ht8jpL/vudJ9vv/NJPPz4rP/Hw3nEROnRM1h85CnYed5AcPNtsxxdVyAefozWgfKCidJJ6AaDetxRA5LzBgoNPKhhP6E5Hi6nTcCYl/8G0tmhkWheon3910MOBAICiKHMTeyIoIR+mEnNu8EtKlAjH+axnGefWO+QRstb4jk4jpAH1jtk0vIV0sSjN3YMIc+rd8im5cIl0u4PPuRx9Q4JtYCDQt+Bh/x5Dp99jhqu96fy7qCfPex5Dp9fMHMHCbUARp14lg825M9z+PyCmTvIqQVwS71LbFaP4zx7v2DmDtJq+YfnvKDXRTJwgOfZZzZ3kFoLvJDJh35g59lnNneQXQtQNAmi9f6AQh7Z3EEJWoAgB+X3ZvZAQp7Y3EEhWl4ks/Oii6eZjfKQsxTY3EE5WuDHEE8KGOCkJOQA0CjHh+vwnWHXHRSlBTBn0eApb8jtdTRzDWuZ8AI0S923rngSPrFFC9w5d91BYVr+ZqiXiTXKGPAAh48kUswnen5nmKl7NqA3+7+cmNTQn56Yvr9nkHZqyCYWf17x4HMj+Sr0mXXdQR3kfu6wEGI/d1gIsZ87rISUzx1WRsrnDksj5HOHpRHyucPayPjcYXFEfO6wOCI/d1gNiZ87LIfAzx3WQPbvHSiC6N87UARRv3egKpJ+70BVJP3egbII+r0DZRH8ewdaorl36C/n/z7qHerpBdT3DfXvFVz0DpO9d4hA4r13iDgivHfI/vQO6/sG/L3E9qd3uP69Avend7j+vQL3p3eI3zfUv1fIo3eYz72D/ZHPvYP9kce9g/2Sx72D/ZLHvYP9kse9g/3i997B+9M7XP97hf9e6h36zdkv9Z/T/ebsl/rP6X5z9kv953S/Oful43v8//2fO/h//3MH/7Qt86rFPmOfY5+xz7HP2OfYZ+xz7DN+yaN36Jc8eod+yaN36Jc8eod+yaN3aJ/PPmOfzz5jn88+Y5/PPuOXPHqHftHVO9yHviPvY7IPfUfex2Qf+o68j4n/vqN9Aph36J4E5h2aJ4J5h97JYN6hdUKYd+ic3Zh3yPuY7MO8Q97HZB/mHfI+Jvsw75D3MdmHeYe8j4n/eYf2CWDeoXsSmHdongjmHXpnL+Yd8j4muc87/N//3uF/EPQO/c7lzWfuoL/lymfuoL/lymfuoL/lymfuoL/lymfuoL/lymfuoL/lymfuoL/lymfu4Lvl2kst9d7hu+XaSy313uG75do7Lf3nDr9brr3UUmb8LVc+5w77W658zh32t1z5nDv8brn2UkuZu6+WjUBb73CvteRSs9dacqnZay251Oy1lv/nHzeXmr3WkkvNXmvJpWavteRSs9dacmnYai0DAA==;" vertex="1" parent="1">
          <mxGeometry x="468" y="262" width="54" height="54" as="geometry" />
        </mxCell>
        <mxCell id="oga_OuISWfnWDX2VcwPs-15" value="HTTPS&lt;div&gt;443&lt;/div&gt;" style="edgeStyle=orthogonalEdgeStyle;rounded=0;orthogonalLoop=1;jettySize=auto;html=1;entryX=0.55;entryY=0.95;entryDx=0;entryDy=0;entryPerimeter=0;exitX=0.5;exitY=0;exitDx=0;exitDy=0;" edge="1" parent="1" source="oga_OuISWfnWDX2VcwPs-11" target="oga_OuISWfnWDX2VcwPs-1">
          <mxGeometry relative="1" as="geometry" />
        </mxCell>
        <mxCell id="oga_OuISWfnWDX2VcwPs-20" value="HTTPS&lt;div&gt;443&lt;/div&gt;" style="edgeStyle=orthogonalEdgeStyle;rounded=0;orthogonalLoop=1;jettySize=auto;html=1;" edge="1" parent="1" source="oga_OuISWfnWDX2VcwPs-9" target="oga_OuISWfnWDX2VcwPs-8">
          <mxGeometry relative="1" as="geometry">
            <mxPoint x="357" y="193.5" as="sourcePoint" />
            <mxPoint x="357" y="281.5" as="targetPoint" />
          </mxGeometry>
        </mxCell>
        <mxCell id="oga_OuISWfnWDX2VcwPs-22" value="r/w/d" style="edgeStyle=orthogonalEdgeStyle;rounded=0;orthogonalLoop=1;jettySize=auto;html=1;exitX=1.049;exitY=0.5;exitDx=0;exitDy=0;exitPerimeter=0;startArrow=classic;startFill=1;endArrow=none;" edge="1" parent="1" source="oga_OuISWfnWDX2VcwPs-21" target="w50QFx6NO46n3K7g5-WD-1">
          <mxGeometry x="0.0205" y="1" relative="1" as="geometry">
            <mxPoint x="107.79999999999995" y="311.5" as="sourcePoint" />
            <mxPoint as="offset" />
          </mxGeometry>
        </mxCell>
        <mxCell id="oga_OuISWfnWDX2VcwPs-25" value="r/" style="edgeStyle=orthogonalEdgeStyle;rounded=0;orthogonalLoop=1;jettySize=auto;html=1;entryX=0;entryY=0.5;entryDx=0;entryDy=0;startArrow=classic;startFill=1;endArrow=none;" edge="1" parent="1" source="oga_OuISWfnWDX2VcwPs-21" target="eP7QuQ9XPI-PK0VuXg0I-26">
          <mxGeometry x="-0.2899" relative="1" as="geometry">
            <Array as="points">
              <mxPoint x="70" y="249.5" />
              <mxPoint x="70" y="249.5" />
              <mxPoint x="70" y="170.5" />
            </Array>
            <mxPoint as="offset" />
          </mxGeometry>
        </mxCell>
        <mxCell id="oga_OuISWfnWDX2VcwPs-21" value="" style="shadow=0;dashed=0;html=1;strokeColor=none;fillColor=#4495D1;labelPosition=center;verticalLabelPosition=bottom;verticalAlign=top;align=center;outlineConnect=0;shape=mxgraph.veeam.2d.file_system_browser;" vertex="1" parent="1">
          <mxGeometry x="48" y="289.1" width="44.8" height="44.8" as="geometry" />
        </mxCell>
        <mxCell id="m3zjqHu34r-lu_J2Bqki-40" value="Title" style="" parent="0" />
        <mxCell id="m3zjqHu34r-lu_J2Bqki-41" value="ANW:&amp;nbsp;&lt;span style=&quot;background-color: transparent; color: light-dark(rgb(0, 0, 0), rgb(255, 255, 255));&quot;&gt;Technical Context&lt;/span&gt;" style="text;strokeColor=none;fillColor=none;html=1;fontSize=24;fontStyle=1;verticalAlign=middle;align=center;" parent="m3zjqHu34r-lu_J2Bqki-40" vertex="1">
          <mxGeometry width="780" height="40" as="geometry" />
        </mxCell>
      </root>
    </mxGraphModel>
  </diagram>
</mxfile>
